<?xml version="1.0" encoding="UTF-8" standalone="no"?>
<svg
   width="11.503507"
   height="19.254433"
   x="0px"
   y="0px"
   viewBox="0 0 212.91193 356.36946"
   version="1.1"
   id="svg4"
   sodipodi:docname="pipette.svg"
   inkscape:version="1.1.1 (3bf5ae0d25, 2021-09-20)"
   xmlns:inkscape="http://www.inkscape.org/namespaces/inkscape"
   xmlns:sodipodi="http://sodipodi.sourceforge.net/DTD/sodipodi-0.dtd"
   xmlns="http://www.w3.org/2000/svg"
   xmlns:svg="http://www.w3.org/2000/svg">
  <defs
     id="defs8" />
  <sodipodi:namedview
     id="namedview6"
     pagecolor="#ffffff"
     bordercolor="#666666"
     borderopacity="1.0"
     inkscape:pageshadow="2"
     inkscape:pageopacity="0.0"
     inkscape:pagecheckerboard="0"
     showgrid="false"
     inkscape:zoom="32"
     inkscape:cx="1.921875"
     inkscape:cy="7.078125"
     inkscape:window-width="1920"
     inkscape:window-height="1057"
     inkscape:window-x="3832"
     inkscape:window-y="-8"
     inkscape:window-maximized="1"
     inkscape:current-layer="svg4"
     fit-margin-top="0"
     fit-margin-left="0"
     fit-margin-right="0"
     fit-margin-bottom="0" />
  <path
     d="m 191.09903,352.08404 c -9.47152,4.78335 -20.23908,5.59183 -30.31799,2.27706 -10.07891,-3.31476 -18.26464,-10.35662 -23.04799,-19.82814 l -41.2361,-81.64997 -8.40481,4.24464 c -3.50559,1.77041 -7.29929,2.34916 -10.92261,1.88808 -0.60431,-0.0766 -1.20305,-0.18301 -1.79493,-0.31662 -0.59189,-0.1336 -1.17757,-0.29569 -1.75323,-0.48502 -0.57567,-0.18932 -1.14322,-0.40651 -1.69887,-0.65031 -0.55565,-0.24379 -1.10033,-0.51452 -1.63247,-0.81059 -3.18873,-1.77928 -5.89898,-4.49811 -7.6697,-8.00274 v 0 c -0.88489,-1.75216 -1.47218,-3.57698 -1.78061,-5.41747 -0.10271,-0.61276 -0.17506,-1.22817 -0.21611,-1.84275 -0.1244,-1.84313 0.0235,-3.68197 0.42431,-5.45763 0.1336,-0.59189 0.29569,-1.17756 0.48502,-1.75323 0.37896,-1.15228 0.86812,-2.26832 1.4609,-3.33134 0.88979,-1.59484 2.01377,-3.0695 3.35412,-4.36668 1.34036,-1.29718 2.89615,-2.41719 4.64862,-3.30302 L 76.44873,220.52484 4.3968603,77.851892 C 3.4826493,76.041663 2.9440853,74.065487 2.8167503,72.04244 L 0.05481426,28.618972 C -0.51224874,19.697228 3.3474143,11.123918 10.381002,5.6840479 c 7.115554,-5.50344398 16.404931,-7.130721 24.848037,-4.353941 3.260209,1.072222 6.269887,2.755773 8.946637,5.006713 L 77.48302,34.334084 c 1.55223,1.304231 2.82391,2.910954 3.73749,4.719921 l 72.05376,142.673565 5.45089,-2.75283 c 0.58447,-0.29517 1.17699,-0.55718 1.77469,-0.78694 1.19635,-0.45923 2.41631,-0.78857 3.64309,-0.99462 3.06601,-0.51384 6.17307,-0.25308 9.05425,0.69448 v 0 c 0.0275,0.009 0.0538,0.0219 0.0814,0.031 1.69885,0.56714 3.31833,1.36925 4.80336,2.39768 2.0108,1.39188 3.77531,3.19016 5.15578,5.34954 0.34559,0.54 0.66597,1.10223 0.96115,1.68671 v 0 c 1.47523,2.92111 2.12338,6.04286 2.03097,9.09896 -0.0734,2.44444 -0.61934,4.84714 -1.59515,7.07162 -0.48791,1.11224 -1.08194,2.17906 -1.77804,3.18493 -0.6961,1.00588 -1.49364,1.94892 -2.38668,2.81423 -1.34036,1.29718 -2.89614,2.41718 -4.64862,3.30302 l -8.40481,4.24464 41.23514,81.64966 c 9.87272,19.54896 1.99914,43.48946 -17.55265,53.36441 z"
     id="path2"
     sodipodi:nodetypes="csccscssscssscsscsccccccsccscsccsscccsscsscccsc"
     style="font-variation-settings:normal;opacity:1;vector-effect:none;fill:#000000;fill-opacity:1;stroke-width:1;stroke-linecap:butt;stroke-linejoin:miter;stroke-miterlimit:4;stroke-dasharray:none;stroke-dashoffset:0;stroke-opacity:1;-inkscape-stroke:none;stop-color:#000000;stop-opacity:1" />
  <path
     id="path2-95"
     style="font-variation-settings:normal;vector-effect:none;fill:#ffffff;fill-opacity:1;stroke-width:1;stroke-linecap:butt;stroke-linejoin:miter;stroke-miterlimit:4;stroke-dasharray:none;stroke-dashoffset:0;stroke-opacity:1;-inkscape-stroke:none;stop-color:#000000"
     d="m 31.476706,12.768054 c -4.630242,-1.5228 -9.7271,-0.661184 -13.74229,2.44432 -3.879648,3.00057 -5.993413,7.645665 -5.676501,12.631721 l 2.769149,43.417166 c -0.0038,0.01144 -0.0075,0.02285 -0.01128,0.03428 0.02463,0.39076 0.130143,0.768044 0.313184,1.130455 L 81.75521,204.35263 137.1087,176.39772 70.48244,44.471149 c -0.18062,-0.357652 -0.4197,-0.667458 -0.72389,-0.923046 L 36.426225,15.537482 c -1.538489,-1.29375 -3.152257,-2.178342 -4.949519,-2.769428 z"
     sodipodi:nodetypes="scccccccsccs" />
</svg>
